<svg width="21" height="21" viewBox="0 0 21 21" fill="none" xmlns="http://www.w3.org/2000/svg">
<rect width="21" height="21" fill="white"/>
<g clip-path="url(#clip0_105_866)">
<g clip-path="url(#clip1_105_866)">
<g clip-path="url(#clip2_105_866)">
<path fill-rule="evenodd" clip-rule="evenodd" d="M10.5018 21C4.71183 21 0 16.2917 0 10.5018C0 4.71183 4.71183 0 10.5018 0C16.2917 0 21.0035 4.71183 21.0035 10.5018C21.0035 16.2917 16.2917 21.0035 10.5018 21.0035V21ZM10.5018 0.88369C5.19963 0.88369 0.88369 5.19963 0.88369 10.5018C0.88369 12.9663 1.81615 15.2177 3.34669 16.9217L9.43597 10.8339C9.41301 10.834 9.39006 10.834 9.36711 10.834C7.31342 10.834 5.93486 9.45549 5.93486 7.40179C5.93486 5.5107 7.47601 3.96954 9.36711 3.96954H13.4038C13.6477 3.96954 13.8456 4.16749 13.8456 4.41139C13.8456 4.65529 13.6477 4.85323 13.4038 4.85323H9.36711C7.96028 4.85323 6.81855 5.99496 6.81855 7.40179C6.81855 8.95002 7.81889 9.95035 9.36711 9.95035C9.57213 9.95035 9.78068 9.95035 9.98569 9.94682C10.0998 9.9456 10.2135 9.94439 10.3266 9.94353L16.9235 3.3483C15.2193 1.8168 12.9671 0.88369 10.5018 0.88369ZM17.554 3.96911L11.5566 9.96497C12.5934 10.0254 13.5173 10.2336 14.1815 10.8906C14.7753 11.4809 15.0651 12.3434 15.0651 13.5346C15.0651 15.5247 13.623 16.9669 11.6329 16.9669H6.87157C6.62767 16.9669 6.42973 16.7689 6.42973 16.525C6.42973 16.2811 6.62767 16.0832 6.87157 16.0832H11.6329C13.1352 16.0832 14.1815 15.0369 14.1815 13.5346C14.1815 12.5908 13.9764 11.9334 13.5593 11.5198C12.9521 10.9184 11.8855 10.831 10.6946 10.8267L3.96735 17.5523C5.68434 19.1448 7.98166 20.1198 10.5018 20.1198C15.8039 20.1198 20.1198 15.8039 20.1198 10.5018C20.1198 7.98252 19.1455 5.68591 17.554 3.96911Z" fill="#4D4C4C"/>
</g>
</g>
</g>
<defs>
<clipPath id="clip0_105_866">
<rect width="21" height="21" fill="white"/>
</clipPath>
<clipPath id="clip1_105_866">
<rect width="21" height="21" fill="white"/>
</clipPath>
<clipPath id="clip2_105_866">
<rect width="21" height="21" fill="white"/>
</clipPath>
</defs>
</svg>
