<svg width="22" height="22" viewBox="0 0 22 22" fill="none" xmlns="http://www.w3.org/2000/svg">
<path d="M21.087 21.9999H14.8442C14.3396 21.9999 13.9312 21.5899 13.9312 21.0834V15.0096H8.0648V21.0834C8.0648 21.5899 7.65635 21.9999 7.1518 21.9999H0.912996C0.408446 21.9999 0 21.5899 0 21.0834V7.66152C0 7.352 0.152166 7.0666 0.408446 6.89777L10.4954 0.152656C10.8038 -0.0523502 11.2002 -0.0523502 11.5086 0.152656L21.5956 6.89777C21.8518 7.0666 22.004 7.352 22.004 7.66152V21.0794C22.004 21.5859 21.5956 21.9959 21.091 21.9959L21.087 21.9999ZM15.0324 20.8945H20.8988V7.76603L11 1.14553L1.1012 7.76603V20.8945H6.9676V14.8207C6.9676 14.3142 7.37605 13.9042 7.8806 13.9042H14.1234C14.628 13.9042 15.0364 14.3142 15.0364 14.8207V20.8945H15.0324Z" fill="#4D4C4C"/>
</svg>
